# xmcd
#
# Track frame offsets: 
#        150
#        12366
#        26180
#        39230
#        52619
#        66321
#        78658
#        91996
#
# Disc length: 1392 seconds
#
# Revision: 0
# Processed by: cddbd v1.5.2PL0 Copyright (c) Steve Scherf et al.
# Submitted via: ExactAudioCopy v0.99pb4
#
DISCID=5b056e08
DTITLE=Various Artist - Motown Legends Volume 4
DYEAR=1995
DGENRE=Motown
TTITLE0=Martha Reeves and The Vandellas - Jimmy Mack
TTITLE1=Marvin Gaye and Tammi Terrell - Your Precious Love
TTITLE2=The Temptations - I Can't Get Next To You
TTITLE3=Smokey Robinson and The Miracles - You've Really Got A Hold On M
TTITLE3=e
TTITLE4=Four Tops - Bernadette
TTITLE5=Diana Ross and The Supremes - I Hear A Symphony
TTITLE6=Marvin Gaye - Too Busy Thinking About My Baby
TTITLE7=Mary Wells - You Beat Me To The Punch
EXTD=
EXTT0=
EXTT1=
EXTT2=
EXTT3=
EXTT4=
EXTT5=
EXTT6=
EXTT7=
PLAYORDER=
